<svg xmlns="http://www.w3.org/2000/svg" xmlns:xlink="http://www.w3.org/1999/xlink" aria-hidden="true" role="img" class="iconify iconify--logos" width="31.88" height="32" preserveAspectRatio="xMidYMid meet" viewBox="0 0 256 257"><defs><linearGradient id="IconifyId1813088fe1fbc01fb466" x1="-.828%" x2="57.636%" y1="7.652%" y2="78.411%"><stop offset="0%" stop-color="#41D1FF"></stop><stop offset="100%" stop-color="#BD34FE"></stop></linearGradient><linearGradient id="IconifyId1813088fe1fbc01fb467" x1="43.376%" x2="50.316%" y1="2.242%" y2="89.03%"><stop offset="0%" stop-color="#FFEA83"></stop><stop offset="8.333%" stop-color="#FFDD35"></stop><stop offset="100%" stop-color="#FFA800"></stop></linearGradient></defs><path fill="url(#IconifyId1813088fe1fbc01fb466)" d="M255.153 37.938L134.897 252.976c-2.483 4.44-8.862 4.466-11.382.048L.875 37.958c-2.746-4.814 1.371-10.646 6.827-9.67l120.385 21.517a6.537 6.537 0 0 0 2.322-.004l117.867-21.483c5.438-.991 9.574 4.796 6.807 9.62Z"></path><path fill="url(#IconifyId1813088fe1fbc01fb467)" d="M185.432.063L96.44 17.501a3.268 3.268 0 0 0-2.634 3.014l-5.474 92.456a3.268 3.268 0 0 0 3.997 3.378l24.777-5.718c2.318-.535 4.413 1.507 4.417 3.99l.153 23.335c.027 3.262-3.22 5.506-6.307 4.247l-25.924-10.081a3.27 3.27 0 0 0-4.318 2.587l-8.374 42.253c-.557 2.808 2.096 5.354 4.869 4.579l86.474-24.88c3.424-.987 5.394-4.54 4.435-7.974l-31.992-118.45c-.987-3.638-5.996-4.802-8.583-2.07l-9.72 10.39a3.268 3.268 0 0 1-4.657.151L169.18 40.43c-2.44-2.31-6.366-1.745-8.099 1.165L125.398 98.51a3.268 3.268 0 0 1-4.407 1.09l-36.276-14.5c-2.845-1.14-3.25-5.236-.678-6.938L183.52.063c1.513-.937 3.364-.878 4.82.18l.034.027c.298.223.582.466.848.728l-.002-.002Z"></path></svg>
